<svg width="16" height="12" viewBox="0 0 16 12" fill="none" xmlns="http://www.w3.org/2000/svg">
<path d="M15.92 5.62019C15.8724 5.49743 15.801 5.38529 15.71 5.29019L11.71 1.29019C11.6168 1.19695 11.5061 1.12299 11.3842 1.07253C11.2624 1.02207 11.1319 0.996094 11 0.996094C10.7337 0.996094 10.4783 1.10188 10.29 1.29019C10.1017 1.47849 9.99591 1.73388 9.99591 2.00019C9.99591 2.26649 10.1017 2.52188 10.29 2.71019L12.59 5.00019H1C0.734784 5.00019 0.48043 5.10554 0.292893 5.29308C0.105357 5.48062 0 5.73497 0 6.00019C0 6.2654 0.105357 6.51976 0.292893 6.70729C0.48043 6.89483 0.734784 7.00019 1 7.00019H12.59L10.29 9.29019C10.1963 9.38315 10.1219 9.49375 10.0711 9.61561C10.0203 9.73747 9.9942 9.86817 9.9942 10.0002C9.9942 10.1322 10.0203 10.2629 10.0711 10.3848C10.1219 10.5066 10.1963 10.6172 10.29 10.7102C10.383 10.8039 10.4936 10.8783 10.6154 10.9291C10.7373 10.9798 10.868 11.006 11 11.006C11.132 11.006 11.2627 10.9798 11.3846 10.9291C11.5064 10.8783 11.617 10.8039 11.71 10.7102L15.71 6.71019C15.801 6.61508 15.8724 6.50294 15.92 6.38019C16.02 6.13672 16.02 5.86365 15.92 5.62019Z" fill="white"/>
</svg>
